<svg viewBox="0 0 192 192" xmlns="http://www.w3.org/2000/svg">
    <defs>
        <linearGradient id="gAndroid" x1="0%" y1="0%" x2="100%" y2="100%">
            <stop offset="0%" style="stop-color:#ffffff;stop-opacity:1" />
            <stop offset="100%" style="stop-color:#a0a0a0;stop-opacity:1" />
        </linearGradient>
        <filter id="glowAndroid">
            <feGaussianBlur stdDeviation="2" result="coloredBlur"/>
            <feMerge>
                <feMergeNode in="coloredBlur"/>
                <feMergeNode in="SourceGraphic"/>
            </feMerge>
        </filter>
    </defs>
    <circle cx="96" cy="96" r="90" fill="#0a0a0a" stroke="url(#gAndroid)" stroke-width="2.5" opacity="0.8"/>
    <rect x="29" y="57" width="48" height="10" rx="4" fill="url(#gAndroid)" opacity="0.9" filter="url(#glowAndroid)"/>
    <rect x="29" y="77" width="48" height="10" rx="4" fill="#ef4444" opacity="0.9" filter="url(#glowAndroid)"/>
    <rect x="29" y="96" width="48" height="10" rx="4" fill="url(#gAndroid)" opacity="0.9" filter="url(#glowAndroid)"/>
    <rect x="29" y="115" width="48" height="10" rx="4" fill="url(#gAndroid)" opacity="0.9" filter="url(#glowAndroid)"/>
    <rect x="115" y="57" width="48" height="10" rx="4" fill="url(#gAndroid)" opacity="0.9" filter="url(#glowAndroid)"/>
    <rect x="115" y="77" width="48" height="10" rx="4" fill="url(#gAndroid)" opacity="0.9" filter="url(#glowAndroid)"/>
    <rect x="115" y="96" width="48" height="10" rx="4" fill="#22c55e" opacity="0.9" filter="url(#glowAndroid)"/>
    <rect x="115" y="115" width="48" height="10" rx="4" fill="url(#gAndroid)" opacity="0.9" filter="url(#glowAndroid)"/>
    <line x1="96" y1="48" x2="96" y2="135" stroke="url(#gAndroid)" stroke-width="3" opacity="0.6" stroke-linecap="round"/>
    <path d="M 82 72 L 96 86 L 110 72" stroke="#ef4444" stroke-width="4.5" fill="none" stroke-linecap="round" stroke-linejoin="round" opacity="0.9" filter="url(#glowAndroid)"/>
    <path d="M 110 100 L 96 86 L 82 100" stroke="#22c55e" stroke-width="4.5" fill="none" stroke-linecap="round" stroke-linejoin="round" opacity="0.9" filter="url(#glowAndroid)"/>
    <circle cx="38" cy="38" r="3" fill="url(#gAndroid)" opacity="0.6"/>
    <circle cx="154" cy="38" r="3" fill="url(#gAndroid)" opacity="0.6"/>
    <circle cx="38" cy="154" r="3" fill="url(#gAndroid)" opacity="0.6"/>
    <circle cx="154" cy="154" r="3" fill="url(#gAndroid)" opacity="0.6"/>
</svg>
