<svg viewBox="0 0 180 180" xmlns="http://www.w3.org/2000/svg">
    <defs>
        <linearGradient id="gApple" x1="0%" y1="0%" x2="100%" y2="100%">
            <stop offset="0%" style="stop-color:#ffffff;stop-opacity:1" />
            <stop offset="100%" style="stop-color:#a0a0a0;stop-opacity:1" />
        </linearGradient>
        <filter id="glowApple">
            <feGaussianBlur stdDeviation="2" result="coloredBlur"/>
            <feMerge>
                <feMergeNode in="coloredBlur"/>
                <feMergeNode in="SourceGraphic"/>
            </feMerge>
        </filter>
    </defs>
    <rect width="180" height="180" rx="40" fill="#0a0a0a"/>
    <rect x="27" y="54" width="45" height="9" rx="3.5" fill="url(#gApple)" opacity="0.9" filter="url(#glowApple)"/>
    <rect x="27" y="72" width="45" height="9" rx="3.5" fill="#ef4444" opacity="0.9" filter="url(#glowApple)"/>
    <rect x="27" y="90" width="45" height="9" rx="3.5" fill="url(#gApple)" opacity="0.9" filter="url(#glowApple)"/>
    <rect x="27" y="108" width="45" height="9" rx="3.5" fill="url(#gApple)" opacity="0.9" filter="url(#glowApple)"/>
    <rect x="108" y="54" width="45" height="9" rx="3.5" fill="url(#gApple)" opacity="0.9" filter="url(#glowApple)"/>
    <rect x="108" y="72" width="45" height="9" rx="3.5" fill="url(#gApple)" opacity="0.9" filter="url(#glowApple)"/>
    <rect x="108" y="90" width="45" height="9" rx="3.5" fill="#22c55e" opacity="0.9" filter="url(#glowApple)"/>
    <rect x="108" y="108" width="45" height="9" rx="3.5" fill="url(#gApple)" opacity="0.9" filter="url(#glowApple)"/>
    <line x1="90" y1="45" x2="90" y2="126" stroke="url(#gApple)" stroke-width="3.5" opacity="0.6" stroke-linecap="round"/>
    <path d="M 76.5 68 L 90 81.5 L 103.5 68" stroke="#ef4444" stroke-width="5" fill="none" stroke-linecap="round" stroke-linejoin="round" opacity="0.9" filter="url(#glowApple)"/>
    <path d="M 103.5 94.5 L 90 81.5 L 76.5 94.5" stroke="#22c55e" stroke-width="5" fill="none" stroke-linecap="round" stroke-linejoin="round" opacity="0.9" filter="url(#glowApple)"/>
</svg>
