<svg viewBox="0 0 128 128" xmlns="http://www.w3.org/2000/svg">
    <defs>
        <linearGradient id="g128" x1="0%" y1="0%" x2="100%" y2="100%">
            <stop offset="0%" style="stop-color:#ffffff;stop-opacity:1" />
            <stop offset="100%" style="stop-color:#a0a0a0;stop-opacity:1" />
        </linearGradient>
        <filter id="glow128">
            <feGaussianBlur stdDeviation="1.5" result="coloredBlur"/>
            <feMerge>
                <feMergeNode in="coloredBlur"/>
                <feMergeNode in="SourceGraphic"/>
            </feMerge>
        </filter>
    </defs>
    <rect x="12" y="26" width="44" height="10" rx="4" fill="url(#g128)" opacity="0.9" filter="url(#glow128)"/>
    <rect x="12" y="46" width="44" height="10" rx="4" fill="#ef4444" opacity="0.8" filter="url(#glow128)"/>
    <rect x="12" y="66" width="44" height="10" rx="4" fill="url(#g128)" opacity="0.9" filter="url(#glow128)"/>
    <rect x="12" y="86" width="44" height="10" rx="4" fill="url(#g128)" opacity="0.9" filter="url(#glow128)"/>
    <rect x="72" y="26" width="44" height="10" rx="4" fill="url(#g128)" opacity="0.9" filter="url(#glow128)"/>
    <rect x="72" y="46" width="44" height="10" rx="4" fill="url(#g128)" opacity="0.9" filter="url(#glow128)"/>
    <rect x="72" y="66" width="44" height="10" rx="4" fill="#22c55e" opacity="0.8" filter="url(#glow128)"/>
    <rect x="72" y="86" width="44" height="10" rx="4" fill="url(#g128)" opacity="0.9" filter="url(#glow128)"/>
    <line x1="64" y1="20" x2="64" y2="104" stroke="url(#g128)" stroke-width="3" opacity="0.6" stroke-linecap="round"/>
    <path d="M 54 52 L 64 62 L 74 52" stroke="#ef4444" stroke-width="4" fill="none" stroke-linecap="round" stroke-linejoin="round" opacity="0.9" filter="url(#glow128)"/>
    <path d="M 74 70 L 64 62 L 54 70" stroke="#22c55e" stroke-width="4" fill="none" stroke-linecap="round" stroke-linejoin="round" opacity="0.9" filter="url(#glow128)"/>
</svg>
