<svg viewBox="0 0 48 48" xmlns="http://www.w3.org/2000/svg">
    <defs>
        <linearGradient id="g48" x1="0%" y1="0%" x2="100%" y2="100%">
            <stop offset="0%" style="stop-color:#ffffff;stop-opacity:1" />
            <stop offset="100%" style="stop-color:#a0a0a0;stop-opacity:1" />
        </linearGradient>
    </defs>
    <rect x="4" y="10" width="16" height="3.5" rx="1.5" fill="url(#g48)" opacity="0.9"/>
    <rect x="4" y="17" width="16" height="3.5" rx="1.5" fill="#ef4444" opacity="0.8"/>
    <rect x="4" y="24" width="16" height="3.5" rx="1.5" fill="url(#g48)" opacity="0.9"/>
    <rect x="4" y="31" width="16" height="3.5" rx="1.5" fill="url(#g48)" opacity="0.9"/>
    <rect x="28" y="10" width="16" height="3.5" rx="1.5" fill="url(#g48)" opacity="0.9"/>
    <rect x="28" y="17" width="16" height="3.5" rx="1.5" fill="url(#g48)" opacity="0.9"/>
    <rect x="28" y="24" width="16" height="3.5" rx="1.5" fill="#22c55e" opacity="0.8"/>
    <rect x="28" y="31" width="16" height="3.5" rx="1.5" fill="url(#g48)" opacity="0.9"/>
    <line x1="24" y1="8" x2="24" y2="38" stroke="url(#g48)" stroke-width="1.5" opacity="0.6"/>
    <path d="M 20 19 L 24 23 L 28 19" stroke="#ef4444" stroke-width="1.8" fill="none" stroke-linecap="round" opacity="0.8"/>
    <path d="M 28 26 L 24 23 L 20 26" stroke="#22c55e" stroke-width="1.8" fill="none" stroke-linecap="round" opacity="0.8"/>
</svg>
