<svg viewBox="0 0 32 32" xmlns="http://www.w3.org/2000/svg">
    <defs>
        <linearGradient id="g32" x1="0%" y1="0%" x2="100%" y2="100%">
            <stop offset="0%" style="stop-color:#ffffff;stop-opacity:1" />
            <stop offset="100%" style="stop-color:#a0a0a0;stop-opacity:1" />
        </linearGradient>
    </defs>
    <rect x="2" y="6" width="11" height="2.5" rx="1" fill="url(#g32)" opacity="0.9"/>
    <rect x="2" y="11" width="11" height="2.5" rx="1" fill="#ef4444" opacity="0.8"/>
    <rect x="2" y="16" width="11" height="2.5" rx="1" fill="url(#g32)" opacity="0.9"/>
    <rect x="2" y="21" width="11" height="2.5" rx="1" fill="url(#g32)" opacity="0.9"/>
    <rect x="19" y="6" width="11" height="2.5" rx="1" fill="url(#g32)" opacity="0.9"/>
    <rect x="19" y="11" width="11" height="2.5" rx="1" fill="url(#g32)" opacity="0.9"/>
    <rect x="19" y="16" width="11" height="2.5" rx="1" fill="#22c55e" opacity="0.8"/>
    <rect x="19" y="21" width="11" height="2.5" rx="1" fill="url(#g32)" opacity="0.9"/>
    <line x1="16" y1="5" x2="16" y2="26" stroke="url(#g32)" stroke-width="1" opacity="0.6"/>
    <path d="M 13.5 13 L 16 15.5 L 18.5 13" stroke="#ef4444" stroke-width="1.2" fill="none" stroke-linecap="round" opacity="0.8"/>
    <path d="M 18.5 17.5 L 16 15.5 L 13.5 17.5" stroke="#22c55e" stroke-width="1.2" fill="none" stroke-linecap="round" opacity="0.8"/>
</svg>
