<svg viewBox="0 0 16 16" xmlns="http://www.w3.org/2000/svg">
    <defs>
        <linearGradient id="g16" x1="0%" y1="0%" x2="100%" y2="100%">
            <stop offset="0%" style="stop-color:#ffffff;stop-opacity:1" />
            <stop offset="100%" style="stop-color:#a0a0a0;stop-opacity:1" />
        </linearGradient>
    </defs>
    <rect x="1" y="3" width="5" height="1.5" rx="0.5" fill="url(#g16)" opacity="0.9"/>
    <rect x="1" y="5.5" width="5" height="1.5" rx="0.5" fill="#ef4444" opacity="0.8"/>
    <rect x="1" y="8" width="5" height="1.5" rx="0.5" fill="url(#g16)" opacity="0.9"/>
    <rect x="1" y="10.5" width="5" height="1.5" rx="0.5" fill="url(#g16)" opacity="0.9"/>
    <rect x="10" y="3" width="5" height="1.5" rx="0.5" fill="url(#g16)" opacity="0.9"/>
    <rect x="10" y="5.5" width="5" height="1.5" rx="0.5" fill="url(#g16)" opacity="0.9"/>
    <rect x="10" y="8" width="5" height="1.5" rx="0.5" fill="#22c55e" opacity="0.8"/>
    <rect x="10" y="10.5" width="5" height="1.5" rx="0.5" fill="url(#g16)" opacity="0.9"/>
    <line x1="8" y1="2" x2="8" y2="13" stroke="url(#g16)" stroke-width="0.5" opacity="0.6"/>
    <path d="M 6.5 6.5 L 8 8 L 9.5 6.5" stroke="#ef4444" stroke-width="0.8" fill="none" stroke-linecap="round" opacity="0.8"/>
    <path d="M 9.5 9 L 8 8 L 6.5 9" stroke="#22c55e" stroke-width="0.8" fill="none" stroke-linecap="round" opacity="0.8"/>
</svg>
