<svg viewBox="0 0 64 64" xmlns="http://www.w3.org/2000/svg">
    <defs>
        <linearGradient id="g64" x1="0%" y1="0%" x2="100%" y2="100%">
            <stop offset="0%" style="stop-color:#ffffff;stop-opacity:1" />
            <stop offset="100%" style="stop-color:#a0a0a0;stop-opacity:1" />
        </linearGradient>
    </defs>
    <rect x="6" y="13" width="22" height="5" rx="2" fill="url(#g64)" opacity="0.9"/>
    <rect x="6" y="23" width="22" height="5" rx="2" fill="#ef4444" opacity="0.8"/>
    <rect x="6" y="33" width="22" height="5" rx="2" fill="url(#g64)" opacity="0.9"/>
    <rect x="6" y="43" width="22" height="5" rx="2" fill="url(#g64)" opacity="0.9"/>
    <rect x="36" y="13" width="22" height="5" rx="2" fill="url(#g64)" opacity="0.9"/>
    <rect x="36" y="23" width="22" height="5" rx="2" fill="url(#g64)" opacity="0.9"/>
    <rect x="36" y="33" width="22" height="5" rx="2" fill="#22c55e" opacity="0.8"/>
    <rect x="36" y="43" width="22" height="5" rx="2" fill="url(#g64)" opacity="0.9"/>
    <line x1="32" y1="10" x2="32" y2="52" stroke="url(#g64)" stroke-width="2" opacity="0.6"/>
    <path d="M 27 26 L 32 31 L 37 26" stroke="#ef4444" stroke-width="2.5" fill="none" stroke-linecap="round" opacity="0.8"/>
    <path d="M 37 35 L 32 31 L 27 35" stroke="#22c55e" stroke-width="2.5" fill="none" stroke-linecap="round" opacity="0.8"/>
</svg>
