<svg viewBox="0 0 256 256" xmlns="http://www.w3.org/2000/svg">
    <defs>
        <linearGradient id="g256" x1="0%" y1="0%" x2="100%" y2="100%">
            <stop offset="0%" style="stop-color:#ffffff;stop-opacity:1" />
            <stop offset="100%" style="stop-color:#a0a0a0;stop-opacity:1" />
        </linearGradient>
        <filter id="glow256">
            <feGaussianBlur stdDeviation="2.5" result="coloredBlur"/>
            <feMerge>
                <feMergeNode in="coloredBlur"/>
                <feMergeNode in="SourceGraphic"/>
            </feMerge>
        </filter>
    </defs>
    <circle cx="128" cy="128" r="120" fill="#0a0a0a" stroke="url(#g256)" stroke-width="3" opacity="0.8"/>
    <rect x="38" y="76" width="64" height="13" rx="5" fill="url(#g256)" opacity="0.9" filter="url(#glow256)"/>
    <rect x="38" y="102" width="64" height="13" rx="5" fill="#ef4444" opacity="0.9" filter="url(#glow256)"/>
    <rect x="38" y="128" width="64" height="13" rx="5" fill="url(#g256)" opacity="0.9" filter="url(#glow256)"/>
    <rect x="38" y="154" width="64" height="13" rx="5" fill="url(#g256)" opacity="0.9" filter="url(#glow256)"/>
    <rect x="154" y="76" width="64" height="13" rx="5" fill="url(#g256)" opacity="0.9" filter="url(#glow256)"/>
    <rect x="154" y="102" width="64" height="13" rx="5" fill="url(#g256)" opacity="0.9" filter="url(#glow256)"/>
    <rect x="154" y="128" width="64" height="13" rx="5" fill="#22c55e" opacity="0.9" filter="url(#glow256)"/>
    <rect x="154" y="154" width="64" height="13" rx="5" fill="url(#g256)" opacity="0.9" filter="url(#glow256)"/>
    <line x1="128" y1="64" x2="128" y2="180" stroke="url(#g256)" stroke-width="4" opacity="0.6" stroke-linecap="round"/>
    <path d="M 109 96 L 128 115 L 147 96" stroke="#ef4444" stroke-width="6" fill="none" stroke-linecap="round" stroke-linejoin="round" opacity="0.9" filter="url(#glow256)"/>
    <path d="M 147 134 L 128 115 L 109 134" stroke="#22c55e" stroke-width="6" fill="none" stroke-linecap="round" stroke-linejoin="round" opacity="0.9" filter="url(#glow256)"/>
    <circle cx="51" cy="51" r="4" fill="url(#g256)" opacity="0.6"/>
    <circle cx="205" cy="51" r="4" fill="url(#g256)" opacity="0.6"/>
    <circle cx="51" cy="205" r="4" fill="url(#g256)" opacity="0.6"/>
    <circle cx="205" cy="205" r="4" fill="url(#g256)" opacity="0.6"/>
</svg>
